<svg id="svg" version="1.1" xmlns="http://www.w3.org/2000/svg" xmlns:xlink="http://www.w3.org/1999/xlink" width="400" height="552.3809523809524" viewBox="0, 0, 400,552.3809523809524"><g id="svgg"><path id="path0" d="M195.840 62.589 C 190.157 64.926,187.167 71.400,189.185 77.000 C 189.661 78.320,190.150 79.807,190.272 80.304 C 191.319 84.556,200.507 86.978,205.803 84.398 C 219.946 77.508,210.397 56.605,195.840 62.589 M195.971 120.317 C 183.946 127.101,190.521 144.433,203.851 141.087 C 208.578 139.901,212.278 134.743,211.870 129.907 C 211.573 126.376,208.046 120.800,206.109 120.800 C 205.931 120.800,205.123 120.350,204.314 119.800 C 202.042 118.256,199.326 118.424,195.971 120.317 M196.400 189.819 C 195.850 190.132,194.951 190.391,194.402 190.394 C 193.273 190.401,187.835 195.767,187.391 197.313 C 187.250 197.801,186.790 198.963,186.368 199.896 C 185.312 202.228,185.350 205.681,186.457 208.000 C 186.929 208.990,187.605 210.420,187.958 211.177 C 191.904 219.640,207.918 220.790,212.208 212.919 C 212.592 212.214,213.246 211.272,213.662 210.826 C 215.007 209.382,215.680 202.746,214.846 199.158 C 213.350 192.726,201.677 186.815,196.400 189.819 M195.339 257.237 C 193.335 257.471,192.031 257.875,190.983 258.585 C 190.161 259.143,189.288 259.602,189.044 259.604 C 187.607 259.618,181.124 265.063,180.001 267.200 C 179.596 267.970,178.900 268.905,178.454 269.278 C 178.008 269.651,177.448 270.678,177.211 271.561 C 176.973 272.444,176.617 273.266,176.420 273.388 C 174.261 274.722,174.361 288.674,176.559 292.800 C 176.852 293.350,177.215 294.320,177.367 294.955 C 178.366 299.138,187.397 306.496,193.400 308.018 C 194.500 308.296,195.886 308.767,196.480 309.062 C 198.172 309.904,203.920 309.766,206.049 308.832 C 207.012 308.409,208.520 307.932,209.400 307.773 C 210.280 307.613,211.994 306.834,213.209 306.041 C 214.425 305.248,215.703 304.420,216.049 304.200 C 219.056 302.291,220.693 300.606,222.412 297.652 C 222.748 297.073,223.332 296.139,223.708 295.576 C 229.764 286.515,226.841 271.040,217.593 263.203 C 216.167 261.994,214.860 260.786,214.689 260.519 C 214.518 260.251,213.740 259.912,212.961 259.766 C 212.181 259.620,211.040 259.077,210.426 258.561 C 208.636 257.054,201.945 256.467,195.339 257.237 M199.751 373.593 C 197.733 374.409,198.387 377.200,200.596 377.200 C 202.392 377.200,203.183 374.447,201.626 373.614 C 200.744 373.142,200.866 373.143,199.751 373.593 M199.110 391.900 C 197.085 394.210,196.963 396.196,198.729 398.100 C 200.896 400.435,204.370 398.091,204.044 394.514 C 203.852 392.399,200.315 390.526,199.110 391.900 M199.617 413.129 C 197.931 414.537,197.981 416.638,199.723 417.588 C 202.007 418.833,203.683 415.365,201.850 413.187 L 200.900 412.058 199.617 413.129 M200.206 434.546 C 199.481 435.077,199.485 435.110,200.334 435.565 C 201.058 435.952,201.255 435.922,201.459 435.390 C 201.834 434.413,201.082 433.906,200.206 434.546 M186.600 463.189 C 185.280 463.366,183.120 463.796,181.800 464.145 C 180.480 464.493,178.140 464.948,176.600 465.155 C 175.060 465.362,172.720 465.918,171.400 466.390 C 170.080 466.861,167.470 467.682,165.600 468.213 C 161.145 469.479,157.149 470.782,156.400 471.214 C 156.070 471.404,153.550 472.677,150.800 474.043 C 148.050 475.409,145.530 476.738,145.200 476.997 C 144.870 477.256,143.970 477.706,143.200 477.996 C 142.430 478.286,141.620 478.736,141.400 478.995 C 141.180 479.254,139.470 480.444,137.600 481.640 C 133.276 484.405,130.000 486.790,130.000 487.173 C 130.000 487.337,129.595 487.662,129.100 487.896 C 127.286 488.751,119.547 496.136,115.388 500.982 C 114.075 502.512,112.640 504.142,112.200 504.604 C 111.760 505.066,110.237 507.053,108.816 509.022 C 107.396 510.990,106.091 512.660,105.916 512.733 C 105.742 512.807,105.600 513.060,105.600 513.296 C 105.600 513.531,105.138 514.330,104.573 515.070 C 104.009 515.811,102.548 518.348,101.328 520.708 C 100.108 523.069,98.881 525.270,98.602 525.600 C 98.323 525.930,97.963 526.650,97.801 527.200 C 97.640 527.750,97.173 528.830,96.763 529.600 C 95.542 531.896,93.624 537.597,93.863 538.221 C 94.156 538.983,305.283 539.110,306.954 538.348 L 307.945 537.896 306.926 535.048 C 306.366 533.482,305.745 531.998,305.547 531.751 C 305.349 531.505,304.916 530.387,304.583 529.269 C 304.251 528.150,303.794 527.120,303.568 526.980 C 303.342 526.841,302.721 525.798,302.188 524.663 C 301.655 523.528,301.040 522.330,300.821 522.000 C 299.573 520.120,297.200 515.930,297.200 515.607 C 297.200 515.398,296.705 514.636,296.100 513.913 C 295.495 513.189,294.820 512.308,294.600 511.955 C 290.914 506.033,282.130 496.231,274.800 489.860 C 273.590 488.808,272.240 487.627,271.800 487.236 C 271.360 486.845,270.609 486.318,270.131 486.065 C 269.653 485.812,268.947 485.290,268.562 484.905 C 268.177 484.520,267.539 484.024,267.144 483.803 C 265.451 482.854,260.575 479.408,260.305 478.969 C 260.143 478.705,259.558 478.376,259.006 478.237 C 258.453 478.098,256.156 476.976,253.901 475.742 C 251.645 474.509,249.085 473.246,248.211 472.936 C 247.338 472.626,246.258 472.039,245.811 471.630 C 245.365 471.222,244.046 470.688,242.880 470.444 C 241.714 470.200,240.261 469.742,239.652 469.427 C 239.042 469.112,237.026 468.469,235.172 467.998 C 233.317 467.528,230.810 466.726,229.600 466.218 C 228.347 465.691,225.756 465.105,223.583 464.858 C 221.483 464.619,218.963 464.119,217.983 463.748 C 215.984 462.992,191.346 462.553,186.600 463.189 " stroke="none" fill="#0a0911" fill-rule="evenodd"></path><path id="path1" d="M378.030 25.226 C 376.928 25.680,327.334 26.318,317.800 26.000 C 314.500 25.890,307.840 25.814,303.000 25.831 C 298.160 25.847,279.710 25.903,262.000 25.955 C 242.447 26.012,228.739 26.211,227.100 26.461 C 224.957 26.787,223.759 26.743,221.300 26.245 C 218.731 25.724,216.179 25.654,206.400 25.837 C 190.256 26.138,175.776 26.226,168.600 26.068 C 139.923 25.434,27.462 26.663,25.116 27.635 C 23.190 28.433,22.939 31.187,23.081 50.000 C 23.129 56.295,23.143 107.486,23.098 109.200 C 23.030 111.764,23.113 143.676,23.229 160.000 C 23.346 176.292,23.346 176.521,23.212 187.600 C 23.124 194.916,23.068 219.540,23.127 224.600 C 23.138 225.480,23.126 228.810,23.102 232.000 C 23.077 235.190,23.082 238.430,23.113 239.200 C 23.143 239.970,23.165 242.220,23.160 244.200 C 23.156 246.180,23.156 248.430,23.161 249.200 C 23.165 249.970,23.249 273.460,23.346 301.400 C 23.688 399.440,23.668 397.284,24.257 398.749 C 24.908 400.367,24.950 401.772,24.378 402.840 C 23.621 404.256,23.517 410.528,24.218 412.592 C 24.792 414.283,24.792 414.596,24.212 416.124 C 23.682 417.523,23.505 440.887,23.970 448.200 C 23.984 448.420,23.924 467.230,23.837 490.000 C 23.750 512.770,23.796 532.930,23.940 534.799 L 24.200 538.199 25.800 538.734 C 27.104 539.171,33.130 539.231,58.399 539.057 L 89.397 538.844 90.099 537.978 C 90.484 537.501,90.800 536.708,90.800 536.215 C 90.800 535.051,91.573 532.764,92.225 532.000 C 92.507 531.670,92.867 530.860,93.026 530.200 C 93.462 528.387,95.156 525.192,95.816 524.938 C 96.137 524.815,96.400 524.365,96.400 523.937 C 96.400 522.992,97.490 520.800,97.960 520.800 C 98.147 520.800,98.412 520.239,98.549 519.553 C 98.843 518.087,101.156 514.161,102.709 512.494 C 103.309 511.850,104.112 510.666,104.494 509.862 C 104.875 509.058,105.370 508.400,105.594 508.400 C 105.817 508.400,106.000 508.139,106.000 507.821 C 106.000 507.002,109.965 502.334,110.858 502.101 C 111.266 501.994,111.600 501.687,111.600 501.418 C 111.600 500.661,113.595 498.069,115.741 496.038 C 116.809 495.027,119.249 492.648,121.163 490.752 C 123.077 488.855,125.051 487.174,125.549 487.016 C 126.047 486.858,127.478 485.685,128.728 484.411 C 130.861 482.234,132.950 480.768,135.834 479.421 C 136.512 479.104,137.611 478.337,138.275 477.717 C 138.938 477.097,140.171 476.232,141.015 475.795 C 141.858 475.358,142.875 474.685,143.274 474.300 C 143.673 473.915,144.226 473.600,144.503 473.600 C 144.780 473.600,145.815 473.176,146.803 472.657 C 147.791 472.139,149.128 471.587,149.773 471.431 C 150.418 471.275,151.451 470.724,152.067 470.205 C 152.683 469.686,154.225 468.878,155.494 468.408 C 156.762 467.939,158.520 467.222,159.400 466.816 C 160.280 466.410,161.900 465.954,163.000 465.803 C 164.100 465.652,165.301 465.260,165.668 464.931 C 166.035 464.603,167.745 464.150,169.468 463.925 C 171.191 463.700,173.140 463.205,173.800 462.826 C 180.046 459.234,213.488 458.294,223.675 461.424 C 224.706 461.741,225.759 462.000,226.013 462.000 C 226.268 462.000,226.956 462.342,227.543 462.759 C 228.129 463.177,229.687 463.641,231.005 463.791 C 233.764 464.104,236.000 464.723,236.000 465.172 C 236.000 465.343,237.266 465.692,238.812 465.947 C 240.359 466.203,242.291 466.769,243.106 467.206 C 243.921 467.643,244.720 468.000,244.882 468.000 C 245.704 468.000,249.461 470.047,249.868 470.716 C 250.164 471.204,250.964 471.570,252.054 471.716 C 252.999 471.843,253.958 472.201,254.186 472.510 C 254.414 472.820,255.320 473.305,256.200 473.588 C 257.080 473.870,258.070 474.320,258.400 474.588 C 258.730 474.857,260.035 475.657,261.300 476.367 C 262.565 477.078,263.600 477.836,263.600 478.052 C 263.600 478.268,264.410 478.803,265.400 479.241 C 266.390 479.679,267.200 480.197,267.200 480.392 C 267.200 480.587,267.605 480.869,268.100 481.020 C 268.595 481.170,269.990 482.139,271.200 483.173 C 272.410 484.207,274.030 485.491,274.800 486.026 C 277.725 488.060,280.053 490.142,280.611 491.222 C 280.930 491.839,281.553 492.458,281.996 492.599 C 282.438 492.739,282.800 493.112,282.800 493.427 C 282.800 493.742,283.018 494.000,283.284 494.000 C 283.932 494.000,288.400 498.766,288.400 499.456 C 288.400 499.755,288.617 500.000,288.882 500.000 C 289.659 500.000,293.181 504.052,294.009 505.900 C 294.429 506.835,294.946 507.600,295.159 507.600 C 295.372 507.600,295.656 507.946,295.790 508.370 C 295.925 508.793,296.743 509.869,297.608 510.761 C 298.474 511.653,299.462 512.971,299.805 513.691 C 300.831 515.845,301.638 517.321,302.599 518.800 C 303.099 519.570,303.623 520.700,303.764 521.310 C 303.905 521.921,304.331 522.763,304.710 523.182 C 306.422 525.070,307.200 526.392,307.200 527.411 C 307.200 527.775,307.554 528.524,307.987 529.075 C 308.420 529.625,308.984 531.139,309.239 532.438 C 309.495 533.737,309.825 534.800,309.973 534.800 C 310.121 534.800,310.570 535.713,310.972 536.829 C 311.440 538.132,312.005 538.965,312.551 539.156 C 313.185 539.378,332.968 539.365,339.800 539.138 C 340.240 539.123,349.407 539.230,360.171 539.375 C 379.143 539.630,381.918 539.513,382.025 538.451 C 382.120 537.518,382.919 405.838,382.847 403.027 C 382.770 400.016,381.957 399.056,379.765 399.384 C 378.312 399.602,378.000 399.537,378.000 399.017 C 378.000 398.515,378.415 398.400,380.016 398.457 C 382.849 398.557,382.996 398.293,383.022 393.078 C 383.034 390.615,383.060 383.110,383.079 376.400 C 383.133 357.965,383.140 356.910,383.237 352.600 C 383.374 346.505,383.378 341.916,383.249 336.200 C 383.038 326.775,382.998 320.260,383.127 316.000 C 383.197 313.690,383.163 305.860,383.052 298.600 C 382.690 274.985,382.769 247.528,383.215 242.000 C 384.126 230.701,384.188 214.494,383.553 153.000 C 383.503 148.160,383.573 138.170,383.710 130.800 C 384.144 107.291,384.425 39.852,384.095 38.423 C 383.920 37.666,383.914 35.686,384.081 34.023 C 384.847 26.420,382.701 23.300,378.030 25.226 M202.400 34.000 C 203.966 35.566,203.041 38.800,201.027 38.800 C 198.459 38.800,197.414 35.633,199.454 34.029 C 200.771 32.993,201.387 32.987,202.400 34.000 M205.007 58.876 C 205.553 59.125,206.000 59.456,206.000 59.612 C 206.000 59.768,206.855 60.134,207.900 60.425 C 210.406 61.123,213.506 64.272,213.859 66.479 C 213.992 67.311,214.528 68.453,215.050 69.017 C 216.699 70.795,216.369 77.289,214.537 79.120 C 214.242 79.416,214.000 80.068,214.000 80.570 C 214.000 81.395,213.336 82.366,211.292 84.535 C 207.921 88.111,198.699 89.715,194.510 87.454 C 193.900 87.125,192.772 86.564,192.005 86.209 C 190.082 85.317,189.013 84.230,187.498 81.628 L 186.200 79.400 186.200 73.577 C 186.200 67.807,186.210 67.741,187.300 66.446 C 187.905 65.727,188.400 64.896,188.400 64.600 C 188.400 63.331,194.491 59.295,197.800 58.371 C 199.282 57.958,203.666 58.265,205.007 58.876 M204.336 117.040 C 206.105 117.440,207.558 118.040,208.205 118.640 C 208.775 119.168,209.496 119.600,209.808 119.600 C 212.551 119.600,215.173 127.933,214.181 133.497 C 213.877 135.204,213.618 136.780,213.605 137.000 C 213.571 137.581,209.414 142.000,208.901 142.000 C 208.662 142.000,208.407 142.142,208.333 142.315 C 207.050 145.345,198.414 145.982,194.567 143.330 C 191.366 141.123,188.553 138.415,188.198 137.200 C 188.037 136.650,187.612 135.867,187.253 135.459 C 186.175 134.235,186.069 127.013,187.112 125.867 C 187.546 125.390,188.104 124.370,188.351 123.600 C 188.944 121.758,190.982 119.624,192.425 119.335 C 193.061 119.208,193.683 118.769,193.815 118.353 C 193.946 117.940,194.536 117.499,195.127 117.372 C 195.717 117.246,196.560 116.988,197.000 116.799 C 198.275 116.249,201.272 116.348,204.336 117.040 M216.009 175.941 C 216.774 176.568,218.075 177.206,218.900 177.359 C 220.017 177.565,220.400 177.833,220.400 178.405 C 220.400 178.868,221.263 179.826,222.566 180.809 C 224.769 182.472,225.200 183.066,225.200 184.433 C 225.200 186.096,223.616 185.187,221.819 182.491 C 221.058 181.351,219.901 180.368,218.340 179.535 C 217.053 178.850,216.000 178.051,216.000 177.760 C 216.000 177.469,215.280 177.037,214.400 176.800 C 212.849 176.382,212.276 175.478,213.300 175.065 C 214.248 174.683,214.622 174.804,216.009 175.941 M188.682 175.847 C 188.764 176.093,188.273 176.405,187.590 176.542 C 186.907 176.679,185.806 177.333,185.143 177.995 C 184.481 178.658,183.628 179.200,183.249 179.200 C 182.870 179.200,182.389 179.360,182.180 179.555 C 181.535 180.157,180.000 180.490,180.000 180.027 C 180.000 179.792,180.270 179.600,180.600 179.600 C 180.930 179.600,181.200 179.251,181.200 178.825 C 181.200 178.268,181.904 177.714,183.700 176.858 C 187.436 175.075,188.363 174.887,188.682 175.847 M179.600 181.351 C 179.600 182.331,178.252 184.429,177.747 184.235 C 177.410 184.106,176.980 184.000,176.791 184.000 C 176.480 184.000,176.881 183.014,177.726 181.700 C 178.010 181.258,179.600 180.962,179.600 181.351 M207.800 187.386 C 210.753 189.113,212.400 190.424,212.400 191.047 C 212.400 191.351,212.674 191.600,213.010 191.600 C 213.345 191.600,213.782 192.025,213.979 192.545 C 214.177 193.065,214.607 193.594,214.935 193.720 C 216.072 194.156,218.326 198.900,218.825 201.908 C 219.511 206.042,217.093 213.072,214.728 213.823 C 214.327 213.950,214.000 214.386,214.000 214.791 C 214.000 215.810,210.670 218.892,208.906 219.504 C 208.107 219.782,207.107 220.322,206.685 220.704 C 205.428 221.841,196.104 221.723,194.518 220.550 C 193.886 220.083,192.830 219.582,192.172 219.438 C 190.698 219.114,186.574 215.365,186.191 214.000 C 186.037 213.450,185.503 212.550,185.005 212.000 C 184.507 211.450,184.000 210.550,183.878 210.000 C 183.756 209.450,183.467 208.280,183.237 207.400 C 182.238 203.577,183.192 197.393,185.100 195.332 C 185.595 194.797,186.000 194.192,186.000 193.987 C 186.000 192.588,193.054 187.042,195.812 186.273 C 198.448 185.538,205.807 186.221,207.800 187.386 M173.200 190.375 C 173.200 191.585,172.252 192.731,171.823 192.038 C 171.594 191.667,171.885 189.801,172.283 189.093 C 172.629 188.479,173.200 189.277,173.200 190.375 M230.157 191.033 C 230.539 192.027,230.441 195.128,230.020 195.388 C 229.472 195.726,228.647 192.664,228.955 191.436 C 229.248 190.269,229.794 190.086,230.157 191.033 M170.953 213.600 L 170.696 214.600 170.361 213.419 C 170.177 212.769,170.141 211.779,170.283 211.219 L 170.540 210.200 170.875 211.400 C 171.060 212.060,171.095 213.050,170.953 213.600 M229.813 216.690 C 229.433 218.206,228.696 217.294,228.978 215.654 C 229.597 212.044,229.791 211.659,229.925 213.773 C 229.994 214.859,229.943 216.171,229.813 216.690 M176.596 222.382 C 176.739 223.032,177.158 223.661,177.528 223.780 C 177.898 223.898,178.532 224.491,178.938 225.098 C 179.664 226.183,182.730 228.461,184.100 228.933 C 185.503 229.417,184.932 230.526,183.407 230.279 C 182.085 230.064,179.200 227.785,179.200 226.954 C 179.200 226.754,178.795 226.412,178.300 226.195 C 177.805 225.978,177.342 225.395,177.272 224.900 C 177.202 224.405,176.926 224.000,176.660 224.000 C 176.133 224.000,175.146 221.787,175.510 221.423 C 175.994 220.940,176.348 221.252,176.596 222.382 M226.000 221.800 C 226.000 222.130,225.753 222.400,225.450 222.400 C 225.148 222.400,224.795 222.926,224.666 223.569 C 224.537 224.213,224.084 225.068,223.659 225.469 C 223.234 225.871,222.820 226.560,222.739 227.000 C 222.651 227.479,222.213 227.854,221.650 227.934 C 221.131 228.008,220.619 228.407,220.510 228.821 C 220.352 229.425,216.826 231.200,215.785 231.200 C 214.692 231.200,215.841 229.248,217.199 228.800 C 218.078 228.510,219.590 227.492,220.558 226.536 C 221.527 225.581,222.518 224.800,222.760 224.800 C 223.002 224.800,223.200 224.524,223.200 224.187 C 223.200 223.642,225.337 221.200,225.814 221.200 C 225.916 221.200,226.000 221.470,226.000 221.800 M212.800 232.800 C 212.800 233.333,212.533 233.600,212.000 233.600 C 211.015 233.600,210.981 233.254,211.900 232.557 C 212.808 231.867,212.800 231.865,212.800 232.800 M205.346 253.802 C 205.976 254.131,206.796 254.400,207.168 254.400 C 208.627 254.400,212.839 256.123,213.531 257.003 C 213.933 257.514,214.997 258.130,215.897 258.372 C 217.458 258.793,219.368 260.124,220.756 261.758 C 221.110 262.175,222.189 263.345,223.153 264.358 C 225.303 266.616,227.200 269.499,227.200 270.507 C 227.200 270.920,227.695 272.100,228.300 273.129 L 229.400 275.000 229.351 283.094 C 229.297 291.970,229.546 290.752,226.473 297.144 C 226.117 297.883,224.876 299.455,223.713 300.636 C 222.551 301.817,221.598 302.922,221.596 303.091 C 221.587 303.720,218.412 306.698,217.227 307.189 C 216.552 307.468,216.000 307.832,216.000 307.997 C 216.000 308.161,215.145 308.526,214.100 308.808 C 213.055 309.089,211.835 309.646,211.389 310.046 C 208.078 313.012,193.576 312.975,190.200 309.993 C 189.760 309.604,188.812 309.162,188.093 309.010 C 185.517 308.465,178.800 303.434,178.800 302.049 C 178.800 301.903,178.012 300.924,177.048 299.874 C 174.772 297.395,173.288 294.491,172.966 291.886 C 172.824 290.739,172.414 289.350,172.054 288.800 C 171.229 287.539,171.127 278.733,171.921 277.311 C 172.193 276.822,172.586 275.530,172.792 274.440 C 173.497 270.723,176.343 266.000,177.878 266.000 C 178.165 266.000,178.400 265.657,178.400 265.238 C 178.400 264.233,180.943 261.182,182.502 260.314 C 183.181 259.937,183.840 259.462,183.968 259.259 C 184.096 259.056,184.830 258.598,185.600 258.242 C 186.370 257.885,187.609 257.147,188.354 256.600 C 189.099 256.054,190.719 255.322,191.954 254.973 C 193.189 254.625,194.920 254.096,195.800 253.799 C 198.041 253.043,203.893 253.045,205.346 253.802 M145.269 323.462 C 146.299 324.395,146.182 324.924,144.809 325.532 C 142.622 326.500,140.516 325.084,141.973 323.627 C 142.971 322.629,144.276 322.564,145.269 323.462 M202.819 332.650 C 203.426 334.247,203.270 335.166,202.212 336.224 C 200.204 338.233,197.231 335.623,198.376 332.857 C 199.302 330.623,202.001 330.498,202.819 332.650 M281.579 331.774 C 282.061 332.356,281.541 334.016,280.886 333.987 C 279.994 333.948,279.194 332.043,279.897 331.633 C 280.837 331.086,281.020 331.102,281.579 331.774 M266.189 345.182 C 266.771 346.124,265.920 347.600,264.794 347.600 C 263.835 347.600,263.706 347.471,263.895 346.700 C 264.303 345.033,265.576 344.190,266.189 345.182 M199.600 348.776 C 199.600 350.541,198.999 351.257,198.593 349.977 C 198.272 348.967,198.663 347.200,199.208 347.200 C 199.423 347.200,199.600 347.909,199.600 348.776 M203.391 370.869 C 206.209 372.152,206.942 376.375,204.748 378.679 C 200.437 383.206,194.547 380.032,195.850 373.885 C 196.465 370.982,200.286 369.454,203.391 370.869 M358.617 375.607 C 359.465 375.929,359.592 376.127,359.230 376.563 C 358.137 377.881,355.570 377.299,356.122 375.858 C 356.413 375.100,357.103 375.031,358.617 375.607 M311.600 378.000 C 311.600 378.220,311.330 378.400,311.000 378.400 C 310.670 378.400,310.400 378.220,310.400 378.000 C 310.400 377.780,310.670 377.600,311.000 377.600 C 311.330 377.600,311.600 377.780,311.600 378.000 M204.249 389.863 C 209.635 392.361,206.698 402.000,200.551 402.000 C 193.603 402.000,191.386 390.872,198.048 389.436 C 198.572 389.323,199.360 389.153,199.800 389.058 C 200.879 388.825,202.732 389.160,204.249 389.863 M351.800 406.429 C 351.800 407.113,350.077 407.437,349.501 406.861 C 349.277 406.637,349.197 406.184,349.323 405.855 C 349.619 405.086,351.800 405.591,351.800 406.429 M202.720 409.764 C 206.882 411.938,207.430 419.577,203.426 419.598 C 203.220 419.599,202.633 419.993,202.121 420.474 L 201.190 421.349 198.633 420.076 C 193.847 417.694,193.771 412.190,198.492 409.863 C 200.115 409.063,201.323 409.035,202.720 409.764 M33.779 418.942 C 33.584 419.717,33.257 420.000,32.557 420.000 C 31.235 420.000,31.190 418.131,32.500 417.629 C 33.672 417.179,34.109 417.628,33.779 418.942 M203.488 431.709 C 207.705 435.547,202.436 442.271,198.083 438.608 C 195.719 436.619,195.494 434.339,197.433 432.034 C 199.244 429.882,201.357 429.768,203.488 431.709 " stroke="none" fill="#faf9f9" fill-rule="evenodd"></path><path id="path2" d="M391.133 5.800 C 390.951 5.982,233.811 6.447,231.000 6.274 C 230.340 6.233,207.120 6.241,179.400 6.291 C 151.680 6.341,121.710 6.347,112.800 6.305 C 103.890 6.262,95.520 6.250,94.200 6.276 C 92.880 6.303,74.430 6.310,53.200 6.291 C -1.387 6.242,3.828 5.705,4.776 11.271 C 5.144 13.432,5.166 14.830,4.857 16.600 C 4.436 19.020,4.182 39.760,4.369 56.400 C 4.578 74.907,4.622 152.034,4.462 216.800 C 4.443 224.610,4.344 303.225,4.241 391.500 L 4.055 552.000 200.867 552.000 L 397.678 552.000 397.470 280.661 C 397.284 38.382,397.197 9.166,396.650 7.859 C 395.902 6.069,392.234 4.700,391.133 5.800 M384.322 23.555 C 384.856 23.601,384.704 242.784,384.169 243.650 C 384.045 243.851,383.978 263.946,384.019 288.307 C 384.123 349.688,383.973 405.720,383.703 406.158 C 383.578 406.359,383.441 420.851,383.399 438.362 C 383.267 492.232,382.787 538.104,382.342 539.262 C 381.769 540.756,382.210 540.728,364.356 540.386 C 355.470 540.216,340.328 540.170,330.707 540.283 C 321.086 540.397,312.790 540.384,312.271 540.253 C 311.322 540.015,309.954 537.323,308.788 533.400 C 308.087 531.038,304.989 524.655,304.245 524.037 C 303.890 523.743,303.600 523.269,303.600 522.985 C 303.600 520.937,294.860 507.503,289.800 501.776 C 285.593 497.014,277.062 488.582,275.224 487.371 C 274.248 486.727,272.751 485.575,271.898 484.811 C 269.906 483.026,266.618 480.649,264.683 479.594 C 263.849 479.139,262.814 478.414,262.383 477.983 C 261.953 477.553,261.423 477.200,261.208 477.200 C 260.992 477.200,259.867 476.596,258.708 475.858 C 257.548 475.120,255.768 474.150,254.752 473.703 C 253.735 473.256,252.779 472.690,252.628 472.445 C 252.477 472.200,251.940 472.000,251.437 472.000 C 250.933 472.000,249.728 471.463,248.760 470.807 C 247.792 470.151,246.849 469.611,246.665 469.607 C 246.480 469.603,244.880 468.963,243.108 468.184 C 241.336 467.405,238.967 466.573,237.843 466.335 C 236.720 466.097,235.293 465.644,234.674 465.328 C 234.055 465.012,231.925 464.490,229.941 464.169 C 227.956 463.848,225.769 463.294,225.080 462.938 C 224.391 462.582,221.751 462.040,219.214 461.735 C 216.676 461.429,213.070 460.983,211.200 460.743 C 206.578 460.151,193.330 460.175,189.400 460.783 C 187.640 461.056,184.310 461.503,182.000 461.778 C 179.690 462.053,176.893 462.648,175.785 463.099 C 174.677 463.551,172.697 464.046,171.385 464.198 C 170.073 464.350,167.889 464.908,166.532 465.437 C 165.174 465.967,163.668 466.400,163.186 466.400 C 162.703 466.400,160.960 467.031,159.312 467.803 C 157.665 468.574,155.840 469.322,155.258 469.464 C 154.676 469.606,153.709 470.129,153.110 470.627 C 152.510 471.125,151.470 471.653,150.798 471.800 C 149.499 472.086,143.843 474.882,142.814 475.748 C 142.476 476.032,141.345 476.753,140.300 477.349 C 139.255 477.946,138.400 478.587,138.400 478.773 C 138.400 478.960,137.965 479.222,137.433 479.356 C 136.136 479.681,131.035 483.208,128.800 485.324 C 127.810 486.261,126.246 487.533,125.325 488.151 C 124.404 488.769,122.493 490.473,121.080 491.937 C 119.667 493.402,117.985 495.050,117.342 495.600 C 116.700 496.150,115.214 497.770,114.039 499.200 C 112.865 500.630,111.383 502.319,110.745 502.954 C 109.204 504.489,106.161 508.581,104.284 511.642 C 103.798 512.436,102.532 514.378,101.471 515.958 C 100.410 517.538,99.189 519.589,98.759 520.515 C 98.328 521.442,97.805 522.470,97.597 522.800 C 97.390 523.130,96.942 524.030,96.603 524.800 C 96.263 525.570,95.719 526.650,95.392 527.200 C 95.065 527.750,94.337 529.280,93.774 530.600 C 93.210 531.920,92.494 533.540,92.181 534.200 C 91.868 534.860,91.423 536.164,91.192 537.097 C 90.478 539.973,92.318 539.822,56.400 539.946 C 24.547 540.056,24.191 540.049,23.337 539.248 C 21.398 537.428,21.470 542.258,21.364 407.200 C 21.310 337.350,21.138 258.330,20.984 231.600 C 20.829 204.870,20.698 182.100,20.692 181.000 C 20.686 179.900,20.739 161.079,20.810 139.175 C 20.881 117.271,20.826 99.166,20.688 98.942 C 20.383 98.449,20.378 95.147,20.633 63.000 C 20.744 49.140,20.812 35.975,20.786 33.744 C 20.681 24.753,21.806 24.322,47.000 23.691 C 55.812 23.470,381.799 23.339,384.322 23.555 M21.232 24.038 C 20.591 24.294,20.125 24.285,19.852 24.012 C 19.569 23.729,19.873 23.608,20.820 23.625 C 22.117 23.649,22.142 23.674,21.232 24.038 M200.656 36.278 C 200.178 36.756,200.398 37.600,201.000 37.600 C 201.330 37.600,201.600 37.341,201.600 37.024 C 201.600 36.355,201.029 35.904,200.656 36.278 M198.000 59.162 C 190.141 61.802,186.600 66.234,186.600 73.430 C 186.600 89.481,209.132 93.862,214.122 78.781 C 215.755 73.844,215.806 73.352,214.918 71.090 C 214.466 69.941,213.797 68.163,213.430 67.139 C 211.629 62.110,202.805 57.548,198.000 59.162 M204.169 60.500 C 213.686 63.163,217.552 75.262,211.117 82.244 C 204.028 89.934,192.889 88.453,188.199 79.199 C 186.980 76.793,186.754 70.823,187.805 68.791 C 191.506 61.634,197.453 58.621,204.169 60.500 M197.114 117.570 C 196.009 117.724,194.839 118.199,194.289 118.717 C 193.771 119.203,193.172 119.600,192.955 119.600 C 192.156 119.600,189.642 122.679,188.383 125.200 C 185.549 130.875,187.992 138.482,193.736 141.872 C 204.338 148.129,216.514 138.946,213.618 126.876 C 213.174 125.023,209.968 120.000,209.229 120.000 C 209.069 120.000,208.141 119.483,207.169 118.850 C 205.227 117.589,200.911 117.039,197.114 117.570 M205.921 119.079 C 214.044 123.189,215.717 132.802,209.435 139.278 C 199.719 149.297,183.182 137.442,189.510 124.995 C 192.729 118.663,199.952 116.059,205.921 119.079 M198.313 186.833 C 194.418 187.274,186.000 192.981,186.000 195.180 C 186.000 195.429,185.595 196.180,185.100 196.850 C 183.775 198.642,183.727 208.892,185.036 210.666 C 185.495 211.290,186.188 212.469,186.574 213.286 C 188.152 216.620,194.918 220.668,199.600 221.078 C 203.492 221.420,208.505 219.572,211.497 216.694 C 213.753 214.524,216.000 211.703,216.000 211.041 C 216.000 210.782,216.349 209.884,216.776 209.047 C 218.255 206.147,218.161 199.842,216.612 198.000 C 216.335 197.670,215.991 196.910,215.849 196.311 C 215.707 195.713,214.287 193.911,212.693 192.307 C 208.054 187.638,204.191 186.167,198.313 186.833 M206.793 189.063 C 208.439 189.825,210.097 190.783,210.477 191.191 C 210.857 191.599,211.490 192.173,211.884 192.466 C 214.794 194.635,217.094 200.437,216.703 204.618 C 215.335 219.225,199.529 225.230,189.156 215.083 C 176.755 202.952,191.096 181.795,206.793 189.063 M196.600 254.586 C 196.380 254.653,194.580 255.206,192.600 255.813 C 190.620 256.421,188.640 257.231,188.200 257.613 C 187.760 257.995,187.022 258.422,186.560 258.562 C 185.216 258.968,181.115 262.310,179.726 264.130 C 179.025 265.049,178.198 266.087,177.887 266.438 C 173.257 271.678,171.202 280.142,172.717 287.735 C 173.646 292.393,176.238 298.437,177.700 299.353 C 178.085 299.595,178.400 300.006,178.400 300.266 C 178.400 301.904,186.039 307.949,189.178 308.794 C 190.077 309.036,191.484 309.631,192.306 310.117 C 194.572 311.456,207.698 311.470,209.503 310.135 C 210.146 309.659,211.466 309.040,212.436 308.759 C 214.682 308.108,218.638 305.527,220.196 303.695 C 220.858 302.918,221.770 301.885,222.222 301.400 C 226.285 297.047,228.409 292.304,228.761 286.800 C 229.097 281.535,228.692 275.550,227.886 273.877 C 227.547 273.175,226.720 271.430,226.047 270.000 C 224.153 265.970,219.053 260.550,215.667 258.967 C 214.420 258.384,213.120 257.662,212.778 257.362 C 210.691 255.534,199.673 253.644,196.600 254.586 M207.161 256.272 C 227.179 260.567,235.092 285.410,221.459 301.162 C 214.473 309.235,201.859 312.966,193.200 309.522 C 191.770 308.953,190.040 308.306,189.356 308.084 C 178.894 304.691,171.282 289.803,173.651 277.367 C 174.118 274.915,177.291 267.600,177.888 267.600 C 178.075 267.600,178.570 267.015,178.989 266.300 C 180.181 264.265,185.563 259.519,187.306 258.967 C 187.798 258.811,188.830 258.292,189.600 257.814 C 190.777 257.084,194.042 256.243,198.800 255.444 C 200.263 255.199,203.780 255.547,207.161 256.272 M200.379 333.239 C 200.029 333.894,200.032 334.353,200.394 335.146 L 200.870 336.191 201.382 335.235 C 201.895 334.275,201.791 332.966,201.172 332.583 C 200.989 332.470,200.633 332.765,200.379 333.239 M199.302 371.247 C 195.362 372.385,195.392 377.776,199.349 379.601 C 202.075 380.858,206.064 377.505,205.135 374.737 C 204.481 372.788,201.855 370.471,200.713 370.836 C 200.651 370.856,200.016 371.041,199.302 371.247 M203.483 373.274 C 205.149 375.339,202.711 379.685,200.277 378.988 C 199.176 378.673,197.200 376.597,197.200 375.754 C 197.200 372.348,201.399 370.690,203.483 373.274 M197.596 390.500 C 193.869 393.037,193.568 396.331,196.792 399.300 C 200.862 403.047,206.133 400.749,206.133 395.226 C 206.133 390.505,201.421 387.897,197.596 390.500 M203.003 390.841 C 205.678 392.142,206.399 396.143,204.352 398.327 C 201.888 400.957,199.376 400.978,197.036 398.388 C 193.337 394.293,197.993 388.404,203.003 390.841 M197.446 411.888 C 194.392 415.032,196.137 419.600,200.393 419.600 C 205.064 419.600,207.158 415.272,204.062 412.017 C 201.891 409.735,199.581 409.690,197.446 411.888 M203.893 413.086 C 204.968 414.727,204.505 417.177,202.924 418.213 C 199.220 420.640,195.186 416.636,197.654 412.984 C 199.335 410.497,202.228 410.544,203.893 413.086 M200.000 431.484 C 196.620 432.726,196.297 436.801,199.458 438.308 C 203.128 440.058,205.624 435.407,202.575 432.500 C 201.175 431.165,201.027 431.106,200.000 431.484 M202.142 433.381 C 203.674 434.801,202.803 437.600,200.829 437.600 C 198.082 437.600,197.344 434.205,199.800 432.862 C 200.898 432.261,200.945 432.272,202.142 433.381 M211.804 461.810 C 216.446 462.183,220.567 462.741,222.400 463.245 C 224.050 463.700,226.447 464.223,227.726 464.409 C 230.427 464.801,238.580 467.254,241.200 468.463 C 242.190 468.919,243.752 469.521,244.671 469.799 C 245.590 470.077,246.850 470.660,247.471 471.094 C 248.092 471.528,249.069 471.996,249.642 472.135 C 250.215 472.273,252.240 473.244,254.142 474.293 C 256.045 475.342,258.276 476.571,259.101 477.024 C 261.760 478.485,265.310 480.868,269.149 483.768 C 271.211 485.326,273.281 486.869,273.749 487.198 C 275.889 488.702,284.300 496.862,288.635 501.639 C 290.049 503.198,294.313 508.817,295.435 510.600 C 295.850 511.260,296.421 512.042,296.704 512.338 C 296.987 512.634,297.484 513.389,297.809 514.017 C 298.134 514.645,298.935 515.953,299.590 516.924 C 301.481 519.726,307.499 531.990,308.577 535.240 C 310.111 539.865,309.799 540.127,302.358 540.450 C 290.862 540.950,92.882 540.783,92.484 540.273 C 91.508 539.020,91.661 537.770,93.216 534.317 C 94.087 532.382,94.800 530.647,94.800 530.462 C 94.800 529.415,102.159 515.954,103.871 513.869 C 104.382 513.247,104.800 512.565,104.800 512.352 C 104.800 511.909,107.337 508.420,109.991 505.214 C 110.986 504.011,112.070 502.680,112.400 502.256 C 113.100 501.355,117.093 497.010,119.400 494.638 C 121.111 492.880,129.237 485.763,130.649 484.787 C 131.116 484.464,132.466 483.467,133.649 482.572 C 134.832 481.677,136.426 480.597,137.191 480.172 C 137.956 479.747,139.288 478.905,140.151 478.300 C 141.014 477.695,141.885 477.200,142.087 477.200 C 142.288 477.200,143.026 476.771,143.727 476.247 C 145.166 475.169,149.433 472.993,151.726 472.167 C 152.566 471.864,153.766 471.252,154.393 470.805 C 155.020 470.359,156.133 469.875,156.866 469.730 C 157.600 469.585,158.799 469.131,159.532 468.722 C 160.264 468.313,162.381 467.538,164.236 467.001 C 166.091 466.463,167.927 465.853,168.315 465.645 C 168.703 465.438,170.186 465.068,171.610 464.823 C 173.035 464.579,176.000 463.936,178.200 463.395 C 186.317 461.400,199.157 460.794,211.804 461.810 " stroke="none" fill="#ccb0a1" fill-rule="evenodd"></path><path id="path3" d="M0.000 276.000 L 0.000 552.000 2.000 552.000 L 4.000 552.000 4.041 517.900 C 4.203 381.692,4.411 228.653,4.450 216.800 C 4.627 163.690,4.582 75.284,4.369 56.400 C 4.182 39.760,4.436 19.020,4.857 16.600 C 5.166 14.830,5.144 13.432,4.776 11.271 C 3.828 5.705,-1.387 6.242,53.200 6.291 C 74.430 6.310,92.880 6.303,94.200 6.276 C 95.520 6.250,103.890 6.262,112.800 6.305 C 121.710 6.347,151.680 6.341,179.400 6.291 C 207.120 6.241,230.340 6.224,231.000 6.254 C 231.660 6.284,250.560 6.261,273.000 6.202 C 370.153 5.949,395.199 5.952,395.627 6.217 C 397.298 7.250,397.220 -1.595,397.419 209.123 C 397.523 319.056,397.606 441.175,397.604 480.500 L 397.600 552.000 398.800 552.000 L 400.000 552.000 400.000 276.000 L 400.000 0.000 200.000 0.000 L 0.000 0.000 0.000 276.000 M47.000 23.691 C 27.582 24.177,24.554 24.570,22.600 26.862 C 20.944 28.804,20.738 29.585,20.786 33.744 C 20.812 35.975,20.744 49.140,20.633 63.000 C 20.378 95.147,20.383 98.449,20.688 98.942 C 20.826 99.166,20.881 117.271,20.810 139.175 C 20.739 161.079,20.686 179.900,20.692 181.000 C 20.698 182.100,20.829 204.870,20.984 231.600 C 21.138 258.330,21.310 337.350,21.364 407.200 C 21.470 542.258,21.398 537.428,23.337 539.248 C 24.191 540.049,24.547 540.056,56.400 539.946 C 92.318 539.822,90.478 539.973,91.192 537.097 C 91.423 536.164,91.868 534.860,92.181 534.200 C 92.494 533.540,93.210 531.920,93.774 530.600 C 94.337 529.280,95.065 527.750,95.392 527.200 C 95.719 526.650,96.263 525.570,96.603 524.800 C 96.942 524.030,97.390 523.130,97.597 522.800 C 97.805 522.470,98.328 521.442,98.759 520.515 C 99.189 519.589,100.410 517.538,101.471 515.958 C 102.532 514.378,103.798 512.436,104.284 511.642 C 106.161 508.581,109.204 504.489,110.745 502.954 C 111.383 502.319,112.865 500.630,114.039 499.200 C 115.214 497.770,116.700 496.150,117.342 495.600 C 117.985 495.050,119.667 493.402,121.080 491.937 C 122.493 490.473,124.404 488.769,125.325 488.151 C 126.246 487.533,127.810 486.261,128.800 485.324 C 131.035 483.208,136.136 479.681,137.433 479.356 C 137.965 479.222,138.400 478.960,138.400 478.773 C 138.400 478.587,139.255 477.946,140.300 477.349 C 141.345 476.753,142.476 476.032,142.814 475.748 C 143.843 474.882,149.499 472.086,150.798 471.800 C 151.470 471.653,152.510 471.125,153.110 470.627 C 153.709 470.129,154.676 469.606,155.258 469.464 C 155.840 469.322,157.665 468.574,159.312 467.803 C 160.960 467.031,162.703 466.400,163.186 466.400 C 163.668 466.400,165.174 465.967,166.532 465.437 C 167.889 464.908,170.073 464.350,171.385 464.198 C 172.697 464.046,174.677 463.551,175.785 463.099 C 176.893 462.648,179.690 462.053,182.000 461.778 C 184.310 461.503,187.640 461.056,189.400 460.783 C 193.330 460.175,206.578 460.151,211.200 460.743 C 213.070 460.983,216.676 461.429,219.214 461.735 C 221.751 462.040,224.391 462.582,225.080 462.938 C 225.769 463.294,227.956 463.848,229.941 464.169 C 231.925 464.490,234.055 465.012,234.674 465.328 C 235.293 465.644,236.720 466.097,237.843 466.335 C 238.967 466.573,241.336 467.405,243.108 468.184 C 244.880 468.963,246.480 469.603,246.665 469.607 C 246.849 469.611,247.792 470.151,248.760 470.807 C 249.728 471.463,250.933 472.000,251.437 472.000 C 251.940 472.000,252.477 472.200,252.628 472.445 C 252.779 472.690,253.735 473.256,254.752 473.703 C 255.768 474.150,257.548 475.120,258.708 475.858 C 259.867 476.596,260.992 477.200,261.208 477.200 C 261.423 477.200,261.953 477.553,262.383 477.983 C 262.814 478.414,263.849 479.139,264.683 479.594 C 266.618 480.649,269.906 483.026,271.898 484.811 C 272.751 485.575,274.248 486.727,275.224 487.371 C 277.062 488.582,285.593 497.014,289.800 501.776 C 294.860 507.503,303.600 520.937,303.600 522.985 C 303.600 523.269,303.890 523.743,304.245 524.037 C 304.989 524.655,308.087 531.038,308.788 533.400 C 309.954 537.323,311.322 540.015,312.271 540.253 C 312.790 540.384,321.086 540.397,330.707 540.283 C 340.328 540.170,355.470 540.216,364.356 540.386 C 382.210 540.728,381.769 540.756,382.342 539.262 C 382.787 538.104,383.267 492.232,383.399 438.362 C 383.441 420.851,383.578 406.359,383.703 406.158 C 383.973 405.720,384.123 349.688,384.019 288.307 C 383.978 263.946,384.045 243.851,384.169 243.650 C 384.704 242.784,384.856 23.601,384.322 23.555 C 381.799 23.339,55.812 23.470,47.000 23.691 M383.449 25.843 C 384.122 26.698,384.425 30.613,384.081 34.023 C 383.914 35.686,383.920 37.666,384.095 38.423 C 384.425 39.852,384.144 107.291,383.710 130.800 C 383.573 138.170,383.503 148.160,383.553 153.000 C 384.188 214.494,384.126 230.701,383.215 242.000 C 382.769 247.528,382.690 274.985,383.052 298.600 C 383.163 305.860,383.197 313.690,383.127 316.000 C 382.998 320.260,383.038 326.775,383.249 336.200 C 383.378 341.916,383.374 346.505,383.237 352.600 C 383.140 356.910,383.133 357.965,383.079 376.400 C 383.060 383.110,383.034 390.615,383.022 393.078 C 382.996 398.293,382.849 398.557,380.016 398.457 C 378.415 398.400,378.000 398.515,378.000 399.017 C 378.000 399.537,378.312 399.602,379.765 399.384 C 381.957 399.056,382.770 400.016,382.847 403.027 C 382.919 405.838,382.120 537.518,382.025 538.451 C 381.918 539.513,379.143 539.630,360.171 539.375 C 349.407 539.230,340.240 539.123,339.800 539.138 C 332.968 539.365,313.185 539.378,312.551 539.156 C 312.005 538.965,311.440 538.132,310.972 536.829 C 310.570 535.713,310.121 534.800,309.973 534.800 C 309.825 534.800,309.495 533.737,309.239 532.438 C 308.984 531.139,308.420 529.625,307.987 529.075 C 307.554 528.524,307.200 527.775,307.200 527.411 C 307.200 526.392,306.422 525.070,304.710 523.182 C 304.331 522.763,303.905 521.921,303.764 521.310 C 303.623 520.700,303.099 519.570,302.599 518.800 C 301.638 517.321,300.831 515.845,299.805 513.691 C 299.462 512.971,298.474 511.653,297.608 510.761 C 296.743 509.869,295.925 508.793,295.790 508.370 C 295.656 507.946,295.372 507.600,295.159 507.600 C 294.946 507.600,294.429 506.835,294.009 505.900 C 293.181 504.052,289.659 500.000,288.882 500.000 C 288.617 500.000,288.400 499.755,288.400 499.456 C 288.400 498.766,283.932 494.000,283.284 494.000 C 283.018 494.000,282.800 493.742,282.800 493.427 C 282.800 493.112,282.438 492.739,281.996 492.599 C 281.553 492.458,280.930 491.839,280.611 491.222 C 280.053 490.142,277.725 488.060,274.800 486.026 C 274.030 485.491,272.410 484.207,271.200 483.173 C 269.990 482.139,268.595 481.170,268.100 481.020 C 267.605 480.869,267.200 480.587,267.200 480.392 C 267.200 480.197,266.390 479.679,265.400 479.241 C 264.410 478.803,263.600 478.268,263.600 478.052 C 263.600 477.836,262.565 477.078,261.300 476.367 C 260.035 475.657,258.730 474.857,258.400 474.588 C 258.070 474.320,257.080 473.870,256.200 473.588 C 255.320 473.305,254.414 472.820,254.186 472.510 C 253.958 472.201,252.999 471.843,252.054 471.716 C 250.964 471.570,250.164 471.204,249.868 470.716 C 249.461 470.047,245.704 468.000,244.882 468.000 C 244.720 468.000,243.921 467.643,243.106 467.206 C 242.291 466.769,240.359 466.203,238.812 465.947 C 237.266 465.692,236.000 465.343,236.000 465.172 C 236.000 464.723,233.764 464.104,231.005 463.791 C 229.687 463.641,228.129 463.177,227.543 462.759 C 226.956 462.342,226.268 462.000,226.013 462.000 C 225.759 462.000,224.706 461.741,223.675 461.424 C 213.488 458.294,180.046 459.234,173.800 462.826 C 173.140 463.205,171.191 463.700,169.468 463.925 C 167.745 464.150,166.035 464.603,165.668 464.931 C 165.301 465.260,164.100 465.652,163.000 465.803 C 161.900 465.954,160.280 466.410,159.400 466.816 C 158.520 467.222,156.762 467.939,155.494 468.408 C 154.225 468.878,152.683 469.686,152.067 470.205 C 151.451 470.724,150.418 471.275,149.773 471.431 C 149.128 471.587,147.791 472.139,146.803 472.657 C 145.815 473.176,144.780 473.600,144.503 473.600 C 144.226 473.600,143.673 473.915,143.274 474.300 C 142.875 474.685,141.858 475.358,141.015 475.795 C 140.171 476.232,138.938 477.097,138.275 477.717 C 137.611 478.337,136.512 479.104,135.834 479.421 C 132.950 480.768,130.861 482.234,128.728 484.411 C 127.478 485.685,126.047 486.858,125.549 487.016 C 125.051 487.174,123.077 488.855,121.163 490.752 C 119.249 492.648,116.809 495.027,115.741 496.038 C 113.595 498.069,111.600 500.661,111.600 501.418 C 111.600 501.687,111.266 501.994,110.858 502.101 C 109.965 502.334,106.000 507.002,106.000 507.821 C 106.000 508.139,105.817 508.400,105.594 508.400 C 105.370 508.400,104.875 509.058,104.494 509.862 C 104.112 510.666,103.309 511.850,102.709 512.494 C 101.156 514.161,98.843 518.087,98.549 519.553 C 98.412 520.239,98.147 520.800,97.960 520.800 C 97.490 520.800,96.400 522.992,96.400 523.937 C 96.400 524.365,96.137 524.815,95.816 524.938 C 95.156 525.192,93.462 528.387,93.026 530.200 C 92.867 530.860,92.507 531.670,92.225 532.000 C 91.573 532.764,90.800 535.051,90.800 536.215 C 90.800 536.708,90.484 537.501,90.099 537.978 L 89.397 538.844 58.399 539.057 C 33.130 539.231,27.104 539.171,25.800 538.734 L 24.200 538.199 23.940 534.799 C 23.796 532.930,23.750 512.770,23.837 490.000 C 23.924 467.230,23.984 448.420,23.970 448.200 C 23.505 440.887,23.682 417.523,24.212 416.124 C 24.792 414.596,24.792 414.283,24.218 412.592 C 23.517 410.528,23.621 404.256,24.378 402.840 C 24.950 401.772,24.908 400.367,24.257 398.749 C 23.668 397.284,23.688 399.440,23.346 301.400 C 23.249 273.460,23.165 249.970,23.161 249.200 C 23.156 248.430,23.156 246.180,23.160 244.200 C 23.165 242.220,23.143 239.970,23.113 239.200 C 23.082 238.430,23.077 235.190,23.102 232.000 C 23.126 228.810,23.138 225.480,23.127 224.600 C 23.068 219.540,23.124 194.916,23.212 187.600 C 23.346 176.521,23.346 176.292,23.229 160.000 C 23.113 143.676,23.030 111.764,23.098 109.200 C 23.143 107.486,23.129 56.295,23.081 50.000 C 22.939 31.187,23.190 28.433,25.116 27.635 C 27.462 26.663,139.923 25.434,168.600 26.068 C 175.776 26.226,190.256 26.138,206.400 25.837 C 216.179 25.654,218.731 25.724,221.300 26.245 C 223.759 26.743,224.957 26.787,227.100 26.461 C 228.739 26.211,242.447 26.012,262.000 25.955 C 279.710 25.903,298.160 25.847,303.000 25.831 C 307.840 25.814,314.500 25.890,317.800 26.000 C 327.334 26.318,376.928 25.680,378.030 25.226 C 379.296 24.704,382.874 25.111,383.449 25.843 M199.454 34.029 C 197.414 35.633,198.459 38.800,201.027 38.800 C 203.041 38.800,203.966 35.566,202.400 34.000 C 201.387 32.987,200.771 32.993,199.454 34.029 M201.600 37.024 C 201.600 37.341,201.330 37.600,201.000 37.600 C 200.398 37.600,200.178 36.756,200.656 36.278 C 201.029 35.904,201.600 36.355,201.600 37.024 M197.800 58.371 C 194.491 59.295,188.400 63.331,188.400 64.600 C 188.400 64.896,187.905 65.727,187.300 66.446 C 186.210 67.741,186.200 67.807,186.200 73.577 L 186.200 79.400 187.498 81.628 C 189.013 84.230,190.082 85.317,192.005 86.209 C 192.772 86.564,193.900 87.125,194.510 87.454 C 198.699 89.715,207.921 88.111,211.292 84.535 C 213.336 82.366,214.000 81.395,214.000 80.570 C 214.000 80.068,214.242 79.416,214.537 79.120 C 216.369 77.289,216.699 70.795,215.050 69.017 C 214.528 68.453,213.992 67.311,213.859 66.479 C 213.506 64.272,210.406 61.123,207.900 60.425 C 206.855 60.134,206.000 59.768,206.000 59.612 C 206.000 58.629,200.085 57.734,197.800 58.371 M205.929 60.219 C 209.487 61.620,212.424 64.329,213.430 67.139 C 213.797 68.163,214.466 69.941,214.918 71.090 C 215.806 73.352,215.755 73.844,214.122 78.781 C 211.614 86.360,201.455 90.241,194.089 86.435 C 183.423 80.924,183.848 65.395,194.800 60.485 C 199.343 58.448,201.311 58.401,205.929 60.219 M197.000 116.799 C 196.560 116.988,195.717 117.246,195.127 117.372 C 194.536 117.499,193.946 117.940,193.815 118.353 C 193.683 118.769,193.061 119.208,192.425 119.335 C 190.982 119.624,188.944 121.758,188.351 123.600 C 188.104 124.370,187.546 125.390,187.112 125.867 C 186.069 127.013,186.175 134.235,187.253 135.459 C 187.612 135.867,188.037 136.650,188.198 137.200 C 188.553 138.415,191.366 141.123,194.567 143.330 C 198.414 145.982,207.050 145.345,208.333 142.315 C 208.407 142.142,208.662 142.000,208.901 142.000 C 209.414 142.000,213.571 137.581,213.605 137.000 C 213.618 136.780,213.877 135.204,214.181 133.497 C 215.173 127.933,212.551 119.600,209.808 119.600 C 209.496 119.600,208.775 119.168,208.205 118.640 C 206.432 116.997,199.273 115.820,197.000 116.799 M207.169 118.850 C 208.141 119.483,209.069 120.000,209.229 120.000 C 209.968 120.000,213.174 125.023,213.618 126.876 C 216.514 138.946,204.338 148.129,193.736 141.872 C 187.992 138.482,185.549 130.875,188.383 125.200 C 189.642 122.679,192.156 119.600,192.955 119.600 C 193.172 119.600,193.771 119.203,194.289 118.717 C 196.286 116.841,204.203 116.923,207.169 118.850 M213.300 175.065 C 212.276 175.478,212.849 176.382,214.400 176.800 C 215.280 177.037,216.000 177.469,216.000 177.760 C 216.000 178.051,217.053 178.850,218.340 179.535 C 219.901 180.368,221.058 181.351,221.819 182.491 C 223.616 185.187,225.200 186.096,225.200 184.433 C 225.200 183.066,224.769 182.472,222.566 180.809 C 221.263 179.826,220.400 178.868,220.400 178.405 C 220.400 177.833,220.017 177.565,218.900 177.359 C 218.075 177.206,216.774 176.568,216.009 175.941 C 214.622 174.804,214.248 174.683,213.300 175.065 M186.800 175.459 C 184.126 176.375,181.200 178.134,181.200 178.825 C 181.200 179.251,180.930 179.600,180.600 179.600 C 180.270 179.600,180.000 179.792,180.000 180.027 C 180.000 180.490,181.535 180.157,182.180 179.555 C 182.389 179.360,182.870 179.200,183.249 179.200 C 183.628 179.200,184.481 178.658,185.143 177.995 C 185.806 177.333,186.907 176.679,187.590 176.542 C 188.273 176.405,188.764 176.093,188.682 175.847 C 188.512 175.333,187.672 175.161,186.800 175.459 M177.726 181.700 C 176.881 183.014,176.480 184.000,176.791 184.000 C 176.980 184.000,177.410 184.106,177.747 184.235 C 178.252 184.429,179.600 182.331,179.600 181.351 C 179.600 180.962,178.010 181.258,177.726 181.700 M195.812 186.273 C 193.054 187.042,186.000 192.588,186.000 193.987 C 186.000 194.192,185.595 194.797,185.100 195.332 C 183.192 197.393,182.238 203.577,183.237 207.400 C 183.467 208.280,183.756 209.450,183.878 210.000 C 184.000 210.550,184.507 211.450,185.005 212.000 C 185.503 212.550,186.037 213.450,186.191 214.000 C 186.574 215.365,190.698 219.114,192.172 219.438 C 192.830 219.582,193.886 220.083,194.518 220.550 C 196.104 221.723,205.428 221.841,206.685 220.704 C 207.107 220.322,208.107 219.782,208.906 219.504 C 210.670 218.892,214.000 215.810,214.000 214.791 C 214.000 214.386,214.327 213.950,214.728 213.823 C 216.143 213.374,218.196 209.294,218.967 205.400 C 219.566 202.379,216.827 194.446,214.935 193.720 C 214.607 193.594,214.177 193.065,213.979 192.545 C 213.782 192.025,213.345 191.600,213.010 191.600 C 212.674 191.600,212.400 191.351,212.400 191.047 C 212.400 190.424,210.753 189.113,207.800 187.386 C 205.807 186.221,198.448 185.538,195.812 186.273 M207.198 188.130 C 210.175 189.574,215.429 194.543,215.849 196.311 C 215.991 196.910,216.335 197.670,216.612 198.000 C 218.161 199.842,218.255 206.147,216.776 209.047 C 216.349 209.884,216.000 210.782,216.000 211.041 C 216.000 211.703,213.753 214.524,211.497 216.694 C 208.505 219.572,203.492 221.420,199.600 221.078 C 194.918 220.668,188.152 216.620,186.574 213.286 C 186.188 212.469,185.495 211.290,185.036 210.666 C 183.727 208.892,183.775 198.642,185.100 196.850 C 185.595 196.180,186.000 195.429,186.000 195.180 C 186.000 194.275,191.449 189.375,193.713 188.246 C 197.883 186.165,203.055 186.120,207.198 188.130 M172.283 189.093 C 171.885 189.801,171.594 191.667,171.823 192.038 C 172.252 192.731,173.200 191.585,173.200 190.375 C 173.200 189.277,172.629 188.479,172.283 189.093 M228.955 191.436 C 228.647 192.664,229.472 195.726,230.020 195.388 C 230.441 195.128,230.539 192.027,230.157 191.033 C 229.794 190.086,229.248 190.269,228.955 191.436 M170.283 211.219 C 170.141 211.779,170.177 212.769,170.361 213.419 L 170.696 214.600 170.953 213.600 C 171.095 213.050,171.060 212.060,170.875 211.400 L 170.540 210.200 170.283 211.219 M229.514 213.000 C 228.857 215.752,228.744 217.118,229.152 217.371 C 229.735 217.731,230.075 216.147,229.925 213.773 C 229.814 212.014,229.769 211.930,229.514 213.000 M175.510 221.423 C 175.146 221.787,176.133 224.000,176.660 224.000 C 176.926 224.000,177.202 224.405,177.272 224.900 C 177.342 225.395,177.805 225.978,178.300 226.195 C 178.795 226.412,179.200 226.754,179.200 226.954 C 179.200 227.785,182.085 230.064,183.407 230.279 C 184.932 230.526,185.503 229.417,184.100 228.933 C 182.730 228.461,179.664 226.183,178.938 225.098 C 178.532 224.491,177.898 223.898,177.528 223.780 C 177.158 223.661,176.739 223.032,176.596 222.382 C 176.348 221.252,175.994 220.940,175.510 221.423 M224.414 222.387 C 223.746 223.039,223.200 223.849,223.200 224.187 C 223.200 224.524,223.002 224.800,222.760 224.800 C 222.518 224.800,221.527 225.581,220.558 226.536 C 219.590 227.492,218.078 228.510,217.199 228.800 C 215.841 229.248,214.692 231.200,215.785 231.200 C 216.826 231.200,220.352 229.425,220.510 228.821 C 220.619 228.407,221.131 228.008,221.650 227.934 C 222.213 227.854,222.651 227.479,222.739 227.000 C 222.820 226.560,223.234 225.871,223.659 225.469 C 224.084 225.068,224.537 224.213,224.666 223.569 C 224.795 222.926,225.148 222.400,225.450 222.400 C 225.753 222.400,226.000 222.130,226.000 221.800 C 226.000 220.960,225.795 221.036,224.414 222.387 M211.900 232.557 C 210.981 233.254,211.015 233.600,212.000 233.600 C 212.533 233.600,212.800 233.333,212.800 232.800 C 212.800 231.865,212.808 231.867,211.900 232.557 M195.800 253.799 C 194.920 254.096,193.189 254.625,191.954 254.973 C 190.719 255.322,189.099 256.054,188.354 256.600 C 187.609 257.147,186.370 257.885,185.600 258.242 C 184.830 258.598,184.096 259.056,183.968 259.259 C 183.840 259.462,183.181 259.937,182.502 260.314 C 181.048 261.123,178.400 264.208,178.400 265.094 C 178.400 265.445,178.962 265.010,179.700 264.086 C 181.155 262.266,185.271 258.952,186.560 258.562 C 187.022 258.422,187.760 257.997,188.200 257.617 C 192.613 253.806,208.528 253.641,212.778 257.362 C 213.120 257.662,214.420 258.384,215.667 258.967 C 219.053 260.550,224.153 265.970,226.047 270.000 C 226.720 271.430,227.547 273.175,227.886 273.877 C 228.692 275.550,229.097 281.535,228.761 286.800 C 228.409 292.304,226.285 297.047,222.222 301.400 C 221.770 301.885,220.858 302.918,220.196 303.695 C 218.638 305.527,214.682 308.108,212.436 308.759 C 211.466 309.040,210.146 309.659,209.503 310.135 C 207.698 311.470,194.572 311.456,192.306 310.117 C 191.484 309.631,190.077 309.036,189.178 308.794 C 186.039 307.949,178.400 301.904,178.400 300.266 C 178.400 300.006,178.085 299.595,177.700 299.353 C 176.238 298.437,173.646 292.393,172.717 287.735 C 171.209 280.180,173.782 269.804,177.979 266.513 C 178.540 266.072,178.540 266.024,177.978 266.013 C 176.363 265.980,173.521 270.597,172.792 274.440 C 172.586 275.530,172.193 276.822,171.921 277.311 C 171.127 278.733,171.229 287.539,172.054 288.800 C 172.414 289.350,172.824 290.739,172.966 291.886 C 173.288 294.491,174.772 297.395,177.048 299.874 C 178.012 300.924,178.800 301.903,178.800 302.049 C 178.800 303.434,185.517 308.465,188.093 309.010 C 188.812 309.162,189.760 309.604,190.200 309.993 C 193.576 312.975,208.078 313.012,211.389 310.046 C 211.835 309.646,213.055 309.089,214.100 308.808 C 215.145 308.526,216.000 308.161,216.000 307.997 C 216.000 307.832,216.552 307.468,217.227 307.189 C 218.412 306.698,221.587 303.720,221.596 303.091 C 221.598 302.922,222.551 301.817,223.713 300.636 C 224.876 299.455,226.117 297.883,226.473 297.144 C 229.546 290.752,229.297 291.970,229.351 283.094 L 229.400 275.000 228.300 273.129 C 227.695 272.100,227.200 270.920,227.200 270.507 C 227.200 269.499,225.303 266.616,223.153 264.358 C 222.189 263.345,221.110 262.175,220.756 261.758 C 219.368 260.124,217.458 258.793,215.897 258.372 C 214.997 258.130,213.933 257.514,213.531 257.003 C 212.839 256.123,208.627 254.400,207.168 254.400 C 206.796 254.400,205.976 254.131,205.346 253.802 C 203.893 253.045,198.041 253.043,195.800 253.799 M141.973 323.627 C 140.516 325.084,142.622 326.500,144.809 325.532 C 146.182 324.924,146.299 324.395,145.269 323.462 C 144.276 322.564,142.971 322.629,141.973 323.627 M199.940 331.274 C 197.510 332.113,197.492 335.690,199.912 336.677 C 201.134 337.175,201.292 337.144,202.212 336.224 C 204.345 334.091,202.627 330.346,199.940 331.274 M279.897 331.633 C 279.227 332.024,279.227 332.087,279.897 333.009 C 280.764 334.200,281.050 334.227,281.614 333.174 C 282.349 331.800,281.272 330.833,279.897 331.633 M201.698 333.533 C 201.806 333.943,201.663 334.709,201.382 335.235 L 200.870 336.191 200.394 335.146 C 200.032 334.353,200.029 333.894,200.379 333.239 C 200.890 332.284,201.401 332.397,201.698 333.533 M264.507 345.300 C 263.505 346.581,263.632 347.600,264.794 347.600 C 265.660 347.600,265.971 347.369,266.169 346.582 C 266.575 344.963,265.449 344.095,264.507 345.300 M198.572 348.171 C 198.279 349.335,198.707 350.904,199.229 350.582 C 199.726 350.275,199.707 347.200,199.208 347.200 C 198.992 347.200,198.706 347.637,198.572 348.171 M197.559 371.315 C 195.153 372.936,194.940 377.235,197.160 379.362 C 201.541 383.559,208.435 377.834,205.235 372.656 C 203.739 370.237,200.104 369.602,197.559 371.315 M202.113 371.345 C 204.970 372.554,206.111 375.384,204.561 377.416 C 202.051 380.706,199.025 380.749,196.904 377.525 C 195.492 375.377,196.793 371.972,199.302 371.247 C 200.016 371.041,200.651 370.856,200.713 370.836 C 200.775 370.816,201.405 371.045,202.113 371.345 M356.122 375.858 C 355.570 377.299,358.137 377.881,359.230 376.563 C 359.592 376.127,359.465 375.929,358.617 375.607 C 357.103 375.031,356.413 375.100,356.122 375.858 M310.400 378.000 C 310.400 378.220,310.670 378.400,311.000 378.400 C 311.330 378.400,311.600 378.220,311.600 378.000 C 311.600 377.780,311.330 377.600,311.000 377.600 C 310.670 377.600,310.400 377.780,310.400 378.000 M199.800 389.058 C 199.360 389.153,198.572 389.323,198.048 389.436 C 194.425 390.217,192.690 395.780,195.100 398.891 C 199.608 404.712,206.880 402.224,206.880 394.863 C 206.880 391.126,203.407 388.279,199.800 389.058 M203.078 390.017 C 207.222 391.462,207.282 397.976,203.175 400.474 C 198.591 403.261,192.314 396.746,195.473 392.481 C 197.372 389.917,200.181 389.007,203.078 390.017 M349.323 405.855 C 349.004 406.688,349.728 407.293,350.854 407.134 C 352.159 406.949,352.044 405.923,350.677 405.557 C 349.846 405.335,349.493 405.413,349.323 405.855 M198.492 409.863 C 197.207 410.497,194.800 413.551,194.800 414.549 C 194.800 416.925,196.117 418.824,198.633 420.076 L 201.190 421.349 202.121 420.474 C 202.633 419.993,203.220 419.599,203.426 419.598 C 206.053 419.584,207.141 413.843,204.953 411.541 C 202.719 409.192,200.843 408.704,198.492 409.863 M204.062 412.017 C 207.158 415.272,205.064 419.600,200.393 419.600 C 196.137 419.600,194.392 415.032,197.446 411.888 C 199.581 409.690,201.891 409.735,204.062 412.017 M32.500 417.629 C 31.190 418.131,31.235 420.000,32.557 420.000 C 33.257 420.000,33.584 419.717,33.779 418.942 C 34.109 417.628,33.672 417.179,32.500 417.629 M199.733 430.461 C 197.233 431.141,195.504 434.236,196.407 436.416 C 198.162 440.655,202.934 440.847,204.575 436.745 C 205.911 433.408,202.964 429.584,199.733 430.461 M202.575 432.500 C 205.624 435.407,203.128 440.058,199.458 438.308 C 196.297 436.801,196.620 432.726,200.000 431.484 C 201.027 431.106,201.175 431.165,202.575 432.500 " stroke="none" fill="#c0d9e5" fill-rule="evenodd"></path><path id="path4" d="M19.852 24.012 C 20.125 24.285,20.591 24.294,21.232 24.038 C 22.142 23.674,22.117 23.649,20.820 23.625 C 19.873 23.608,19.569 23.729,19.852 24.012 M196.800 60.630 C 192.785 61.956,190.061 64.427,187.805 68.791 C 186.754 70.823,186.980 76.793,188.199 79.199 C 192.889 88.453,204.028 89.934,211.117 82.244 C 219.975 72.634,209.292 56.506,196.800 60.630 M204.787 62.233 C 217.359 65.967,213.849 85.770,200.621 85.738 C 196.834 85.729,190.832 82.577,190.272 80.304 C 190.150 79.807,189.661 78.320,189.185 77.000 C 185.906 67.901,194.973 59.319,204.787 62.233 M195.360 119.033 C 185.722 124.111,185.745 136.684,195.400 141.726 C 206.836 147.697,218.685 132.894,210.552 122.797 C 206.795 118.132,200.179 116.493,195.360 119.033 M204.314 119.800 C 205.123 120.350,205.931 120.800,206.109 120.800 C 207.016 120.800,209.028 122.880,210.274 125.107 C 217.306 137.674,198.587 148.581,191.237 136.200 C 186.058 127.476,196.443 114.452,204.314 119.800 M198.600 187.579 C 187.780 189.313,181.110 201.859,186.183 210.935 C 194.562 225.925,215.105 221.673,216.703 204.618 C 217.094 200.437,214.794 194.635,211.884 192.466 C 211.490 192.173,210.857 191.599,210.477 191.191 C 208.425 188.988,202.000 187.034,198.600 187.579 M206.200 190.208 C 209.591 191.450,214.151 196.171,214.846 199.158 C 215.680 202.746,215.007 209.382,213.662 210.826 C 213.246 211.272,212.592 212.214,212.208 212.919 C 207.918 220.790,191.904 219.640,187.958 211.177 C 187.605 210.420,186.929 208.990,186.457 208.000 C 185.350 205.681,185.312 202.228,186.368 199.896 C 186.790 198.963,187.250 197.801,187.391 197.313 C 187.835 195.767,193.273 190.401,194.402 190.394 C 194.951 190.391,195.850 190.132,196.400 189.819 C 197.798 189.023,203.594 189.253,206.200 190.208 M198.800 255.444 C 194.042 256.243,190.777 257.084,189.600 257.814 C 188.830 258.292,187.798 258.811,187.306 258.967 C 185.563 259.519,180.181 264.265,178.989 266.300 C 178.570 267.015,178.075 267.600,177.888 267.600 C 177.291 267.600,174.118 274.915,173.651 277.367 C 171.282 289.803,178.894 304.691,189.356 308.084 C 190.040 308.306,191.770 308.953,193.200 309.522 C 199.100 311.868,208.766 310.618,215.000 306.702 C 233.505 295.080,232.495 268.106,213.193 258.445 C 209.111 256.402,201.968 254.912,198.800 255.444 M205.755 257.214 C 208.517 257.530,209.558 257.830,210.426 258.561 C 211.040 259.077,212.181 259.620,212.961 259.766 C 213.740 259.912,214.518 260.251,214.689 260.519 C 214.860 260.786,216.167 261.994,217.593 263.203 C 226.841 271.040,229.764 286.515,223.708 295.576 C 223.332 296.139,222.748 297.073,222.412 297.652 C 220.693 300.606,219.056 302.291,216.049 304.200 C 215.703 304.420,214.425 305.248,213.209 306.041 C 211.994 306.834,210.280 307.613,209.400 307.773 C 208.520 307.932,207.012 308.409,206.049 308.832 C 203.920 309.766,198.172 309.904,196.480 309.062 C 195.886 308.767,194.500 308.296,193.400 308.018 C 187.397 306.496,178.366 299.138,177.367 294.955 C 177.215 294.320,176.852 293.350,176.559 292.800 C 174.361 288.674,174.261 274.722,176.420 273.388 C 176.617 273.266,176.973 272.444,177.211 271.561 C 177.448 270.678,178.008 269.651,178.454 269.278 C 178.900 268.905,179.596 267.970,180.001 267.200 C 181.124 265.063,187.607 259.618,189.044 259.604 C 189.288 259.602,190.161 259.143,190.983 258.585 C 193.285 257.024,199.256 256.469,205.755 257.214 M199.721 372.117 C 196.403 373.121,196.797 377.993,200.277 378.988 C 201.770 379.415,204.513 376.633,204.172 375.037 C 203.671 372.692,201.824 371.481,199.721 372.117 M201.626 373.614 C 203.183 374.447,202.392 377.200,200.596 377.200 C 197.801 377.200,197.912 373.790,200.726 373.225 C 200.796 373.211,201.201 373.386,201.626 373.614 M199.600 390.294 C 197.622 390.642,195.600 393.418,195.600 395.786 C 195.600 398.305,199.638 400.974,202.058 400.054 C 207.882 397.840,205.711 389.221,199.600 390.294 M202.759 392.614 C 204.044 394.078,204.136 394.325,204.018 396.000 C 203.936 397.174,201.777 399.174,200.575 399.189 C 198.535 399.216,196.843 395.868,197.870 393.839 C 199.418 390.779,200.836 390.424,202.759 392.614 M199.800 411.252 C 195.767 412.370,196.116 418.722,200.219 418.867 C 203.609 418.988,205.653 415.772,203.893 413.086 C 202.899 411.569,201.277 410.842,199.800 411.252 M202.800 415.135 C 202.800 416.847,200.998 418.283,199.723 417.588 C 197.981 416.638,197.931 414.537,199.617 413.129 L 200.900 412.058 201.850 413.187 C 202.373 413.808,202.800 414.684,202.800 415.135 M199.800 432.862 C 197.344 434.205,198.082 437.600,200.829 437.600 C 202.803 437.600,203.674 434.801,202.142 433.381 C 200.945 432.272,200.898 432.261,199.800 432.862 M201.459 435.390 C 201.255 435.922,201.058 435.952,200.334 435.565 C 199.485 435.110,199.481 435.077,200.206 434.546 C 201.082 433.906,201.834 434.413,201.459 435.390 M188.200 461.860 C 184.900 462.164,180.400 462.855,178.200 463.395 C 176.000 463.936,173.035 464.579,171.610 464.823 C 170.186 465.068,168.703 465.438,168.315 465.645 C 167.927 465.853,166.091 466.463,164.236 467.001 C 162.381 467.538,160.264 468.313,159.532 468.722 C 158.799 469.131,157.600 469.585,156.866 469.730 C 156.133 469.875,155.020 470.359,154.393 470.805 C 153.766 471.252,152.566 471.864,151.726 472.167 C 149.433 472.993,145.166 475.169,143.727 476.247 C 143.026 476.771,142.288 477.200,142.087 477.200 C 141.885 477.200,141.014 477.695,140.151 478.300 C 139.288 478.905,137.956 479.747,137.191 480.172 C 136.426 480.597,134.832 481.677,133.649 482.572 C 132.466 483.467,131.116 484.464,130.649 484.787 C 129.237 485.763,121.111 492.880,119.400 494.638 C 117.093 497.010,113.100 501.355,112.400 502.256 C 112.070 502.680,110.986 504.011,109.991 505.214 C 107.337 508.420,104.800 511.909,104.800 512.352 C 104.800 512.565,104.382 513.247,103.871 513.869 C 102.159 515.954,94.800 529.415,94.800 530.462 C 94.800 530.647,94.087 532.382,93.216 534.317 C 91.661 537.770,91.508 539.020,92.484 540.273 C 92.882 540.783,290.862 540.950,302.358 540.450 C 309.799 540.127,310.111 539.865,308.577 535.240 C 307.499 531.990,301.481 519.726,299.590 516.924 C 298.935 515.953,298.134 514.645,297.809 514.017 C 297.484 513.389,296.987 512.634,296.704 512.338 C 296.421 512.042,295.850 511.260,295.435 510.600 C 294.313 508.817,290.049 503.198,288.635 501.639 C 284.300 496.862,275.889 488.702,273.749 487.198 C 273.281 486.869,271.211 485.326,269.149 483.768 C 265.310 480.868,261.760 478.485,259.101 477.024 C 258.276 476.571,256.045 475.342,254.142 474.293 C 252.240 473.244,250.215 472.273,249.642 472.135 C 249.069 471.996,248.092 471.528,247.471 471.094 C 246.850 470.660,245.590 470.077,244.671 469.799 C 243.752 469.521,242.190 468.919,241.200 468.463 C 238.580 467.254,230.427 464.801,227.726 464.409 C 226.447 464.223,224.050 463.700,222.400 463.245 C 215.911 461.460,199.685 460.802,188.200 461.860 M217.983 463.748 C 218.963 464.119,221.483 464.619,223.583 464.858 C 225.756 465.105,228.347 465.691,229.600 466.218 C 230.810 466.726,233.317 467.528,235.172 467.998 C 237.026 468.469,239.042 469.112,239.652 469.427 C 240.261 469.742,241.714 470.200,242.880 470.444 C 244.046 470.688,245.365 471.222,245.811 471.630 C 246.258 472.039,247.338 472.626,248.211 472.936 C 249.085 473.246,251.645 474.509,253.901 475.742 C 256.156 476.976,258.453 478.098,259.006 478.237 C 259.558 478.376,260.143 478.705,260.305 478.969 C 260.575 479.408,265.451 482.854,267.144 483.803 C 267.539 484.024,268.177 484.520,268.562 484.905 C 268.947 485.290,269.653 485.812,270.131 486.065 C 270.609 486.318,271.360 486.845,271.800 487.236 C 272.240 487.627,273.590 488.808,274.800 489.860 C 282.130 496.231,290.914 506.033,294.600 511.955 C 294.820 512.308,295.495 513.189,296.100 513.913 C 296.705 514.636,297.200 515.398,297.200 515.607 C 297.200 515.930,299.573 520.120,300.821 522.000 C 301.040 522.330,301.655 523.528,302.188 524.663 C 302.721 525.798,303.342 526.841,303.568 526.980 C 303.794 527.120,304.251 528.150,304.583 529.269 C 304.916 530.387,305.349 531.505,305.547 531.751 C 305.745 531.998,306.366 533.482,306.926 535.048 L 307.945 537.896 306.954 538.348 C 305.283 539.110,94.156 538.983,93.863 538.221 C 93.624 537.597,95.542 531.896,96.763 529.600 C 97.173 528.830,97.640 527.750,97.801 527.200 C 97.963 526.650,98.323 525.930,98.602 525.600 C 98.881 525.270,100.108 523.069,101.328 520.708 C 102.548 518.348,104.009 515.811,104.573 515.070 C 105.138 514.330,105.600 513.531,105.600 513.296 C 105.600 513.060,105.742 512.807,105.916 512.733 C 106.091 512.660,107.396 510.990,108.816 509.022 C 110.237 507.053,111.760 505.066,112.200 504.604 C 112.640 504.142,114.075 502.512,115.388 500.982 C 119.547 496.136,127.286 488.751,129.100 487.896 C 129.595 487.662,130.000 487.337,130.000 487.173 C 130.000 486.790,133.276 484.405,137.600 481.640 C 139.470 480.444,141.180 479.254,141.400 478.995 C 141.620 478.736,142.430 478.286,143.200 477.996 C 143.970 477.706,144.870 477.256,145.200 476.997 C 145.530 476.738,148.050 475.409,150.800 474.043 C 153.550 472.677,156.070 471.404,156.400 471.214 C 157.149 470.782,161.145 469.479,165.600 468.213 C 167.470 467.682,170.080 466.861,171.400 466.390 C 172.720 465.918,175.060 465.362,176.600 465.155 C 178.140 464.948,180.480 464.493,181.800 464.145 C 186.066 463.019,188.769 462.866,202.600 462.971 C 214.214 463.059,216.460 463.172,217.983 463.748 " stroke="none" fill="#7f6d63" fill-rule="evenodd"></path></g></svg>